{"title":"Teen.Wolf.S01E01.Pilot.INTERNAL.REENCODE.WEB-DL.XviD-TRiC","uid":6449819,"size":369074756,"categoryP":"video","categoryS":"tv_shows","magnet":"?xt=urn:btih:db16cbbfa86cbf47167f99a114f8feb37c6a2035&amp;dn=Teen.Wolf.S01E01.Pilot.INTERNAL.REENCODE.WEB-DL.XviD-TRiC&amp;tr=udp%3A%2F%2Ftracker.openbittorrent.com%3A80&amp;tr=udp%3A%2F%2Fopen.demonii.com%3A1337&amp;tr=udp%3A%2F%2Ftracker.coppersurfer.tk%3A6969&amp;tr=udp%3A%2F%2Fexodus.desync.com%3A6969","seeders":13,"leechers":1,"uploader":"babel55","files":1,"time":1307384316,"description":"General\nUnique ID : 196002104571948802078651796800432326960 (0x9374A1DA34A332408C1BC3ACB1394930)\nComplete name : D:\\Seriale\\Teen.Wolf.S01E01.Pilot.720p.WEB-DL.DD5.1.H.264-CRL\\Teen.Wolf.S01E01.Pilot.720p.WEB-DL.DD5.1.H.264-CRL.mkv\nFormat : Matroska\nFile size : 1.30 GiB\nDuration : 41mn 10s\nOverall bit rate : 4 534 Kbps\nEncoded date : UTC 2011-06-06 08:21:15\nWriting application : mkvmerge v4.8.0 ('I Got The...' built on May 24 2011 03:12:58\nWriting library : libebml v1.2.0 + libmatroska v1.1.0\n\nVideo\nID : 1\nFormat : AVC\nFormat/Info : Advanced Video Codec\nFormat profile : &lt;a class=&quot;__cf_email__&quot; href=&quot;/cdn-cgi/l/email-protection&quot; data-cfemail=&quot;99d1f0fef1d9d5aab7a8&quot;&gt;[email&amp;#160;protected]&lt;/a&gt;&lt;script cf-hash='f9e31' type=&quot;text/javascript&quot;&gt;\n/* &lt;![CDATA[ */!function(){try{var t=&quot;currentScript&quot;in document?document.currentScript:function(){for(var t=document.getElementsByTagName(&quot;script&quot;),e=t.length;e--;)if(t[e].getAttribute(&quot;cf-hash&quot;))return t[e]}();if(t&amp;&amp;t.previousSibling){var e,r,n,i,c=t.previousSibling,a=c.getAttribute(&quot;data-cfemail&quot;);if(a){for(e=&quot;&quot;,r=parseInt(a.substr(0,2),16),n=2;a.length-n;n+=2)i=parseInt(a.substr(n,2),16)^r,e+=String.fromCharCode(i);e=document.createTextNode(e),c.parentNode.replaceChild(e,c)}}}catch(u){}}();/* ]]&gt; */&lt;/script&gt;\nFormat settings, CABAC : No\nFormat settings, ReFrames : 2 frames\nFormat settings, GOP : M=2, N=41\nCodec ID : V_MPEG4/ISO/AVC\nDuration : 41mn 10s\nBit rate : 4 060 Kbps\nWidth : 1 280 pixels\nHeight : 720 pixels\nDisplay aspect ratio : 16:9\nFrame rate : 23.976 fps\nColor space : YUV\nChroma subsampling : 4:2:0\nBit depth : 8 bits\nScan type : Progressive\nBits/(Pixel*Frame) : 0.184\nStream size : 1.17 GiB (90%)\nLanguage : English\nColor primaries : BT.709-5, BT.1361, IEC 61966-2-4, SMPTE RP177\nTransfer characteristics : BT.709-5, BT.1361\nMatrix coefficients : BT.709-5, BT.1361, IEC 61966-2-4 709, SMPTE RP177\n\nAudio\nID : 2\nFormat : AC-3\nFormat/Info : Audio Coding 3\nMode extension : CM (complete main)\nCodec ID : A_AC3\nDuration : 41mn 10s\nBit rate mode : Constant\nBit rate : 384 Kbps\nChannel(s) : 6 channels\nChannel positions : Front: L C R, Side: L R, LFE\nSampling rate : 48.0 KHz\nBit depth : 16 bits\nCompression mode : Lossy\nStream size : 113 MiB (8%)\nLanguage : English","torrent":{"xt":"urn:btih:db16cbbfa86cbf47167f99a114f8feb37c6a2035","amp;dn":"Teen.Wolf.S01E01.Pilot.INTERNAL.REENCODE.WEB-DL.XviD-TRiC","amp;tr":["udp%3A%2F%2Ftracker.openbittorrent.com%3A80","udp%3A%2F%2Fopen.demonii.com%3A1337","udp%3A%2F%2Ftracker.coppersurfer.tk%3A6969","udp%3A%2F%2Fexodus.desync.com%3A6969"],"infoHash":"db16cbbfa86cbf47167f99a114f8feb37c6a2035","infoHashBuffer":{"type":"Buffer","data":[219,22,203,191,168,108,191,71,22,127,153,161,20,248,254,179,124,106,32,53]},"announce":[],"urlList":[]}}